<?xml version="1.0" encoding="UTF-8" standalone="no"?>
<svg version="1.1" id="Layer_1" x="0px" y="0px" viewBox="0 0 434.88947 89.502669" width="434.88947" height="89.50267" xmlns="http://www.w3.org/2000/svg">
<g id="frog" transform="translate(-4.4488114,-9.7612966)">
	<path d="M 93.9,67.1 C 92.9,79.9 73.6,90 50,90 26.4,90 7.1,79.9 6.1,67.1 Z" style="fill:#2f964f;fill-opacity:1" />
	<path d="m 92.2,59.4 c 0.5,0.9 0.8,1.8 1.1,2.7 H 6.7 C 7,61.2 7.3,60.3 7.8,59.5 8.3,58.5 8.3,57.3 7.6,56.3 5.8,53.6 4.8,50.4 4.8,46.9 c 0,-9.4 7.6,-17 17,-17 7.2,0 13.4,4.5 15.9,10.9 0.5,1.3 1.8,2.1 3.1,1.9 3,-0.3 6.1,-0.5 9.2,-0.5 3.2,0 6.3,0.2 9.2,0.5 1.3,0.2 2.6,-0.6 3.1,-1.8 C 65,33.8 72.1,29 80.2,30 c 7.8,0.9 14.1,7.3 14.9,15.1 0.4,4.1 -0.7,8 -2.8,11.1 -0.6,1 -0.6,2.2 -0.1,3.2 z" style="fill:#2f964f;fill-opacity:1" />
	<path d="m 21.8,41.8 c 2.8,0 5.1,2.3 5.1,5.1 0,2.8 -2.3,5.1 -5.1,5.1 -2.8,0 -5.1,-2.3 -5.1,-5.1 0,-2.9 2.3,-5.1 5.1,-5.1 m 0,-7.7 c -7,0 -12.7,5.7 -12.7,12.7 0,7 5.7,12.7 12.7,12.7 7,0 12.7,-5.7 12.7,-12.7 0,-7 -5.7,-12.7 -12.7,-12.7 z" style="fill:#ffffff;fill-opacity:1" />
	<path d="m 78.2,41.8 c 2.8,0 5.1,2.3 5.1,5.1 0,2.8 -2.3,5.1 -5.1,5.1 -2.8,0 -5.1,-2.3 -5.1,-5.1 0.1,-2.9 2.3,-5.1 5.1,-5.1 m 0,-7.7 c -7,0 -12.7,5.7 -12.7,12.7 0,7 5.7,12.7 12.7,12.7 7,0 12.7,-5.7 12.7,-12.7 0,-7 -5.7,-12.7 -12.7,-12.7 z" style="fill:#ffffff;fill-opacity:1" />
	<path d="m 65.5,14.8 -7.8,3.9 c -0.3,0.1 -0.6,0.1 -0.8,-0.2 l -6.5,-8.3 c -0.3,-0.3 -0.7,-0.3 -1,0 l -6.2,8.5 C 43,18.9 42.7,19 42.4,18.9 l -8,-4.1 c -0.5,-0.2 -1,0.2 -0.9,0.7 L 36.7,29 c 0.1,0.5 0.6,0.9 1.1,0.9 h 24.5 c 0.5,0 1,-0.4 1.1,-0.9 l 3.1,-13.5 c 0,-0.5 -0.5,-0.9 -1,-0.7 z" style="fill:#2f964f;fill-opacity:1" />
</g>
<path d="M164.7347568 22.078708 162.42008909999998 33.5027131H136.2867441L133.9720764 45.001384900000005H157.04408669999998L154.729419 56.42539000000001H131.73207539999999L128.1480738 74.345398H113.3640672L123.8174052 22.078708Z M181.23609750000003 38.3560486Q186.3134331 33.2040463 195.8707707 33.2040463L193.40676960000002 45.972052000000005Q191.5401021 45.74805190000001 190.1961015 45.74805190000001Q185.4174327 45.74805190000001 182.54276475 48.025386250000004Q179.6680968 50.3027206 178.69742970000001 55.2307228L174.81476130000001 74.345398H160.6280883L168.6920919 33.8760466H182.13209790000002Z M194.97477030000002 56.5747234Q194.97477030000002 49.9293871 198.1854384 44.628051400000004Q201.3961065 39.3267157 207.0707757 36.265381000000005Q212.7454449 33.2040463 219.83878140000002 33.2040463Q226.2601176 33.2040463 231.0387864 35.481380650000006Q235.8174552 37.758715 238.4307897 41.902716850000004Q241.0441242 46.0467187 241.0441242 51.57205450000001Q241.0441242 58.217390800000004 237.8334561 63.556059850000004Q234.622788 68.8947289 228.98545215000001 71.9560636Q223.34811630000002 75.0173983 216.1801131 75.0173983Q209.75877690000002 75.0173983 204.9801081 72.74006395Q200.2014393 70.4627296 197.5881048 66.28139440000001Q194.97477030000002 62.100059200000004 194.97477030000002 56.5747234ZM226.6334511 52.3187215Q226.6334511 48.884053300000005 224.6174502 46.68138565Q222.6014493 44.478718 219.01744770000002 44.478718Q214.76144580000002 44.478718 212.07344460000002 47.65205275Q209.3854434 50.825387500000005 209.3854434 55.9027231Q209.3854434 59.4867247 211.4014443 61.614725650000004Q213.4174452 63.742726600000005 217.0014468 63.742726600000005Q221.2574487 63.742726600000005 223.9454499 60.56939185Q226.6334511 57.39605710000001 226.6334511 52.3187215Z M281.4388089 33.8760466H294.95348160000003L288.382812 66.878728Q286.06814430000003 78.6013999 279.3481413 84.052069Q272.6281383 89.5027381 261.6521334 89.5027381Q249.4067946 89.5027381 241.94012460000002 84.2760691L248.2867941 74.4200647Q250.7507952 76.3613989 254.40946350000002 77.4813994Q258.0681318 78.6013999 262.0254669 78.6013999Q267.3268026 78.6013999 270.05213715 76.32406555Q272.77747170000004 74.0467312 273.6734721 69.4920625L273.9721389 68.1480619Q269.4174702 72.2547304 262.6974672 72.2547304Q257.8441317 72.2547304 253.8121299 70.16406280000001Q249.7801281 68.07339520000001 247.39079370000002 64.15339345000001Q245.00145930000002 60.2333917 245.00145930000002 55.0067227Q245.00145930000002 49.0333867 247.9134606 44.030717800000005Q250.82546190000002 39.0280489 255.90279750000002 36.1160476Q260.9801331 33.2040463 267.1774692 33.2040463Q271.8068046 33.2040463 275.20413945 34.921380400000004Q278.6014743 36.6387145 280.16947500000003 40.2973828ZM276.43614 51.198721000000006Q276.43614 48.212053 274.42013910000003 46.38271885Q272.40413820000003 44.5533847 268.89480330000004 44.5533847Q264.63880140000003 44.5533847 261.9508002 47.27871925Q259.26279900000003 50.0040538 259.26279900000003 54.334722400000004Q259.26279900000003 57.3213904 261.2787999 59.1133912Q263.2948008 60.905392000000006 266.87880240000004 60.905392000000006Q271.1348043 60.905392000000006 273.78547215000003 58.217390800000004Q276.43614 55.5293896 276.43614 51.198721000000006Z M349.3855059 57.7693906Q349.3855059 65.90806090000001 342.7401696 70.12672945Q336.0948333 74.345398 325.4174952 74.345398H296.67081570000005L307.1241537 22.078708H333.5561655Q342.3668361 22.078708 347.03350485 25.25204275Q351.7001736 28.425377500000003 351.7001736 34.324046800000005Q351.7001736 38.8787155 349.23617250000007 42.20138365Q346.77217140000005 45.5240518 342.3668361 47.3907193Q345.7268376 48.884053300000005 347.55617175 51.53472115Q349.3855059 54.185389 349.3855059 57.7693906ZM319.59349260000005 32.7560461 317.5774917 42.83605060000001H328.1801631Q332.13749820000004 42.83605060000001 334.19083245 41.305383250000006Q336.24416670000005 39.774715900000004 336.24416670000005 36.862714600000004Q336.24416670000005 32.7560461 330.0468306 32.7560461ZM326.23882890000004 63.6680599Q330.196164 63.6680599 332.436165 62.100059200000004Q334.676166 60.532058500000005 334.676166 57.4707238Q334.676166 55.2307228 333.03349860000003 54.14805565Q331.39083120000004 53.0653885 328.5534966 53.0653885H315.48682410000004L313.3961565 63.6680599Z M354.6868416 56.5747234Q354.6868416 49.9293871 357.8975097 44.628051400000004Q361.1081778 39.3267157 366.782847 36.265381000000005Q372.4575162 33.2040463 379.5508527 33.2040463Q385.9721889 33.2040463 390.7508577 35.481380650000006Q395.5295265 37.758715 398.142861 41.902716850000004Q400.7561955 46.0467187 400.7561955 51.57205450000001Q400.7561955 58.217390800000004 397.54552739999997 63.556059850000004Q394.3348593 68.8947289 388.69752345 71.9560636Q383.0601876 75.0173983 375.8921844 75.0173983Q369.4708482 75.0173983 364.6921794 72.74006395Q359.9135106 70.4627296 357.3001761 66.28139440000001Q354.6868416 62.100059200000004 354.6868416 56.5747234ZM386.3455224 52.3187215Q386.3455224 48.884053300000005 384.3295215 46.68138565Q382.3135206 44.478718 378.729519 44.478718Q374.4735171 44.478718 371.78551589999995 47.65205275Q369.0975147 50.825387500000005 369.0975147 55.9027231Q369.0975147 59.4867247 371.1135156 61.614725650000004Q373.1295165 63.742726600000005 376.7135181 63.742726600000005Q380.96952 63.742726600000005 383.6575212 60.56939185Q386.3455224 57.39605710000001 386.3455224 52.3187215Z M424.57487280000004 45.972052000000005 421.8868716 59.2627246Q421.7375382 60.3080584 421.7375382 60.6067252Q421.7375382 64.0413934 425.4708732 64.0413934Q427.4868741 64.0413934 429.72687510000003 62.846726200000006L431.5188759 72.6280639Q427.33754070000003 75.0173983 420.9908712 75.0173983Q414.7188684 75.0173983 411.02286675000005 71.8813969Q407.3268651 68.7453955 407.3268651 63.145393Q407.3268651 60.9800587 407.7001986 59.3373913L410.38819980000005 45.972052000000005H404.41486380000003L406.5801981 35.3693806H412.4788674L414.56953500000003 24.841375900000003H428.756208L426.66554040000005 35.3693806H435.84954450000004L433.7588769 45.972052000000005Z" style="fill:#ffffff;fill-opacity:1" id="wordmark" />
</svg>
