<?xml version="1.0" encoding="UTF-8" standalone="no"?>
<svg
   width="398.39417"
   height="75.81752"
   viewBox="0 0 398.39417 75.817519"
   fill="none"
   version="1.1"
   id="svg9"
   sodipodi:docname="logoLongFirmware.svg"
   inkscape:export-filename="Firmware Logo Long Light.png"
   inkscape:export-xdpi="96"
   inkscape:export-ydpi="96"
   inkscape:version="1.3 (0e150ed, 2023-07-21)"
   xmlns:inkscape="http://www.inkscape.org/namespaces/inkscape"
   xmlns:sodipodi="http://sodipodi.sourceforge.net/DTD/sodipodi-0.dtd"
   xmlns="http://www.w3.org/2000/svg"
   xmlns:svg="http://www.w3.org/2000/svg">
  <defs
     id="defs9" />
  <sodipodi:namedview
     id="namedview9"
     pagecolor="#ffffff"
     bordercolor="#000000"
     borderopacity="0.25"
     inkscape:showpageshadow="2"
     inkscape:pageopacity="0.0"
     inkscape:pagecheckerboard="0"
     inkscape:deskcolor="#d1d1d1"
     inkscape:zoom="0.76536313"
     inkscape:cx="289.40511"
     inkscape:cy="190.75912"
     inkscape:window-width="1392"
     inkscape:window-height="1051"
     inkscape:window-x="336"
     inkscape:window-y="38"
     inkscape:window-maximized="0"
     inkscape:current-layer="svg9">
    <inkscape:page
       x="0"
       y="0"
       width="398.39417"
       height="75.81752"
       id="page1"
       margin="0 0 0 0"
       bleed="0" />
  </sodipodi:namedview>
  <path
     fill-rule="evenodd"
     clip-rule="evenodd"
     d="m 65.8089,75.968128 h 17.149552 l -3.564419,-6.802474 -6.07935,-1.370296 -5.977541,-11.932564 7.80455,-13.138571 -3.096447,-6.112017 h 2.287368 l 4.133089,-2.672244 v -2.444521 h 1.727261 V 22.339942 L 72.225869,19.840235 70.172248,17.008617 H 59.937132 L 52.200931,25.646667 44.490578,10.254807 -1.5219326,-0.15060834 29.092708,34.294549 H 25.582841 L 13.031083,43.212494 6.6853008,55.525176 4.0079196,56.283667 V 45.913916 L 6.675548,44.159696 0.81066322,35.205912 V 60.511587 L 8.8882887,58.229928 15.51027,45.373632 22.499556,40.407518 12.293857,60.970203 v 8.101096 l 2.800932,6.896829 h 10.832965 v -3.479419 l -1.309559,-2.756763 -3.057437,-1.871411 v -1.601349 l 6.296607,-10.42446 v 6.802002 l 5.510679,6.369553 2.388225,4.260426 v 2.701421 H 48.295088 V 72.508377 L 46.917497,69.400036 43.639,67.626153 l -3.88618,-5.764092 2.983697,-5.542079 9.058764,1.421518 -2.128946,11.717211 -0.02601,6.509417 h 12.607009 v -3.319722 l -0.588017,-2.330502 -1.793707,-1.754223 1.367283,-2.7352 4.576005,7.109494 z m 4.615491,-42.555447 h 2.965935 l 1.878072,-1.213935 v -0.703305 h -1.541404 v -3.199366 h 3.271995 V 24.689791 L 70.260102,22.577496 68.544417,20.207982 H 63.734823 Z M 60.590326,21.068284 58.345774,23.57592 69.525397,45.919466 71.49608,42.600531 Z m -6.849577,7.652311 2.313376,-2.584389 11.532465,23.048596 -1.949751,3.283572 z M 27.512451,37.493914 15.48791,61.718863 v 6.727469 l 1.754537,4.319107 h 5.280104 l -0.380277,-0.797503 -3.775648,-2.310841 v -4.289766 l 8.886704,-14.717876 31.157146,4.891898 10.592398,16.452748 v 0.77134 h 8.669132 L 77.252719,71.96476 71.137687,70.584791 70.79658,69.907812 51.038534,30.460226 32.952245,37.493914 Z M 49.59878,27.585633 42.313582,13.040864 34.513631,11.277225 46.114602,28.941023 Z M 43.069219,30.125462 30.023576,10.262008 20.726782,8.1599094 39.488942,31.518118 Z M 36.365378,32.733163 15.717376,7.0272779 7.4784746,5.164383 33.059763,33.949318 32.921322,34.072694 Z m -5.31404,28.712306 v -6.959314 l 8.338332,1.30845 -3.363655,6.252996 5.403479,8.019743 3.008752,1.627353 0.474315,1.070742 h -5.962317 v -0.335246 l -2.956738,-5.272646 z m 28.170119,1.258021 -2.71839,-4.223163 -1.551396,-0.243421 -2.114198,11.654731 v 2.873802 h 6.144368 l -0.198225,-0.790845 -2.820358,-2.753436 z m 0.71964,-53.1675127 h -0.0031 V 14.877007 H 70.173075 V 9.5359773 h -0.0065 l -2.55058,2.5582237 -2.553942,-2.5582237 h -0.013 L 62.49511,12.094201 Z"
     fill="#e74860"
     id="path1"
     style="stroke-width:1.58581" />
  <g
     id="g1"
     transform="matrix(1.650382,0,0,1.650382,-69.947436,-34.573244)">
    <path
       d="m 260.82131,53.208696 c 0,-0.999059 0.0951,-2.093266 0.23787,-3.235046 1.14178,-8.087617 4.85257,-11.703257 12.179,-11.703257 6.32737,0 9.08667,2.759305 9.08667,9.229397 0,1.522375 -0.14272,3.139898 -0.33302,4.614699 -0.0951,0.713614 -0.23787,0.808762 -0.99905,0.808762 h -13.13049 v 0.237871 c 0,2.473859 1.4748,2.854453 4.66228,2.854453 2.47386,0 4.13895,-0.285445 6.18464,-0.666039 0.76119,-0.142723 1.14178,0.333019 1.04663,0.951484 l -0.61846,4.567125 c -0.0951,0.57089 -0.23787,0.713612 -0.71361,0.808761 -1.95055,0.380594 -4.18654,0.570891 -6.51767,0.570891 -7.70703,0 -11.08479,-2.759305 -11.08479,-9.039101 z m 7.70702,-4.804995 h 7.08856 c 0.0476,-0.475743 0.0951,-0.951485 0.0951,-1.332078 0,-2.045691 -0.80877,-2.664156 -2.66416,-2.664156 -2.42628,0 -3.80594,0.999058 -4.51955,3.996234 z"
       fill="#202939"
       id="path2"
       style="fill:#202939;fill-opacity:1;stroke-width:1.58581" />
    <path
       d="m 245.89569,61.676906 c -0.52331,0 -0.85633,-0.33302 -0.76118,-0.90391 l 2.9496,-21.027802 c 0.0951,-0.666039 0.33302,-0.903911 0.85633,-0.903911 h 4.85257 c 0.52332,0 0.85633,0.237872 0.76119,0.951485 l -0.14273,1.189355 c 2.33114,-2.283562 4.90015,-2.71173 6.37495,-2.71173 h 0.23787 c 0.90391,0 1.18935,0.285445 1.09421,0.951485 l -0.61847,4.51955 c -0.0951,0.523316 -0.14272,0.761187 -0.71361,0.761187 h -0.0476 c -2.33114,0 -4.47198,0.618465 -6.4701,1.998117 L 252.2706,60.82057 c -0.0951,0.523316 -0.33302,0.856336 -0.85633,0.856336 z"
       fill="#202939"
       id="path3"
       style="fill:#202939;fill-opacity:1;stroke-width:1.58581" />
    <path
       d="m 221.42035,53.351419 c 0,-0.951485 0.0475,-1.950543 0.23787,-3.04475 1.14178,-8.420636 5.85162,-12.036276 13.13048,-12.036276 3.33019,0 7.04098,0.761188 8.46821,1.427227 0.61847,0.285445 0.90391,0.523316 0.85634,0.90391 l -2.80688,20.171466 c -0.0951,0.618465 -0.28545,0.90391 -0.80877,0.90391 h -4.805 c -0.57088,0 -0.85633,-0.33302 -0.76118,-0.951484 l 0.0951,-0.570891 c -1.66509,1.427226 -3.56806,2.093266 -5.8992,2.093266 -4.90015,0 -7.70702,-3.04475 -7.70702,-8.896378 z m 7.23128,-0.523316 c 0,2.37871 0.9039,3.235046 2.85445,3.235046 0.99905,0 2.04569,-0.237871 3.42534,-0.856336 l 1.42723,-10.751772 c -0.42817,0 -0.85634,-0.04757 -1.33208,-0.04757 -4.09138,0 -5.61376,1.855395 -6.23222,6.232222 -0.0952,0.856337 -0.14272,1.569949 -0.14272,2.188415 z"
       fill="#202939"
       id="path4"
       style="fill:#202939;fill-opacity:1;stroke-width:1.58581" />
    <path
       d="m 193.91135,61.676906 c -0.47575,0 -0.71362,-0.285445 -0.80877,-0.808761 l -3.04474,-21.360822 c -0.0476,-0.428168 0.14272,-0.66604 0.52331,-0.66604 h 5.70891 c 0.57089,0 0.80876,0.285446 0.85634,0.856337 l 0.42816,4.234105 c 0.23787,2.902027 0.47574,5.75648 0.66604,9.0391 1.18936,-3.425344 2.28356,-6.422518 3.47292,-9.419694 l 1.6651,-4.234105 c 0.14272,-0.380593 0.33301,-0.475742 0.80876,-0.475742 h 4.13895 c 0.52332,0 0.80876,0.285445 0.85634,0.856336 l 0.47575,4.234105 c 0.28544,2.902027 0.57089,5.804054 0.80876,9.086675 1.14177,-3.472919 2.23599,-6.470093 3.33019,-9.467269 l 1.61752,-4.234105 c 0.14273,-0.333019 0.33302,-0.475743 0.80876,-0.475743 h 5.75648 c 0.5709,0 0.90392,0.475743 0.66605,1.046633 l -9.03911,21.360822 c -0.14272,0.333019 -0.33302,0.428168 -0.80876,0.428168 h -5.56618 c -0.42816,0 -0.76119,-0.285445 -0.80877,-0.808761 l -0.57089,-4.186531 c -0.28544,-2.331136 -0.57088,-4.709847 -0.76118,-7.707023 -1.09421,3.187472 -2.04569,5.661332 -3.04475,8.087616 l -1.76025,4.186531 c -0.14272,0.333019 -0.38059,0.428168 -0.80876,0.428168 z"
       fill="#202939"
       id="path5"
       style="fill:#202939;fill-opacity:1;stroke-width:1.58581" />
    <path
       d="m 165.62689,61.676906 c -0.52332,0 -0.85633,-0.33302 -0.76119,-0.951484 l 1.71268,-12.274147 c 0.42817,-3.187472 0.0951,-3.901086 -1.76025,-3.901086 -1.42722,0 -2.85445,0.475743 -4.2341,1.189356 l -2.14084,15.1286 c -0.0951,0.523316 -0.33302,0.808761 -0.80877,0.808761 h -5.56539 c -0.52331,0 -0.85633,-0.380594 -0.76118,-0.90391 l 2.99717,-21.360822 c 0.0475,-0.380593 0.23787,-0.570891 0.71361,-0.570891 h 4.89936 c 0.61847,0 0.80876,0.333021 0.71362,0.951485 l -0.0951,0.666039 c 2.14083,-1.522374 4.47197,-2.188414 7.04097,-2.188414 2.99718,0 4.85258,0.951485 5.80406,2.664156 2.33113,-1.80782 4.90014,-2.664156 7.70702,-2.664156 5.37588,0 7.13613,2.997176 6.37654,8.373062 l -1.95214,14.129541 c -0.0951,0.666039 -0.28544,0.90391 -0.80875,0.90391 h -5.56461 c -0.57247,0 -0.85792,-0.33302 -0.76277,-0.951484 l 1.71267,-12.274147 c 0.42817,-3.187472 0.0951,-3.901086 -1.76024,-3.901086 -1.42723,0 -2.90203,0.475743 -4.28168,1.189356 0,0.285445 -0.0476,0.618464 -0.0951,0.90391 l -1.95054,14.177115 c -0.0951,0.618465 -0.28545,0.856336 -0.76119,0.856336 z"
       fill="#202939"
       id="path6"
       style="fill:#202939;fill-opacity:1;stroke-width:1.58581" />
    <path
       d="m 135.87715,61.676906 c -0.52331,0 -0.85634,-0.33302 -0.76119,-0.90391 l 2.94961,-21.027802 c 0.0951,-0.666039 0.33302,-0.903911 0.85633,-0.903911 h 4.85257 c 0.52332,0 0.85634,0.237872 0.76119,0.951485 l -0.14272,1.189355 c 2.33113,-2.283562 4.90014,-2.71173 6.3751,-2.71173 h 0.23772 c 0.9039,0 1.18935,0.285445 1.0942,0.951485 l -0.61846,4.51955 c -0.0952,0.523316 -0.14257,0.761187 -0.71346,0.761187 h -0.0478 c -2.33112,0 -4.47197,0.618465 -6.47009,1.998117 l -1.99811,14.319838 c -0.0952,0.523316 -0.33302,0.856336 -0.85634,0.856336 z"
       fill="#202939"
       id="path7"
       style="fill:#202939;fill-opacity:1;stroke-width:1.58581" />
    <path
       d="m 124.8439,61.676906 c -0.47574,0 -0.85633,-0.33302 -0.76119,-0.90391 l 2.9496,-21.075376 c 0.0952,-0.570891 0.28545,-0.856337 0.90391,-0.856337 h 5.47103 c 0.5709,0 0.85635,0.333021 0.7612,0.951485 l -2.9496,21.075377 c -0.0951,0.523316 -0.23788,0.808761 -0.7612,0.808761 z m 2.85445,-26.784282 0.80877,-5.518609 c 0.0476,-0.428168 0.23787,-0.618464 0.71361,-0.618464 h 5.51861 c 0.61846,0 0.95148,0.285445 0.85633,0.999058 l -0.80876,5.518609 c -0.0476,0.475741 -0.23787,0.618465 -0.71361,0.618465 h -5.51861 c -0.66604,0 -0.95149,-0.428169 -0.85634,-0.999059 z"
       fill="#202939"
       id="path8"
       style="fill:#202939;fill-opacity:1;stroke-width:1.58581" />
    <path
       d="m 105.77362,30.848816 c 0.0476,-0.428168 0.19029,-0.57089 0.66604,-0.57089 h 18.0782 c 0.57089,0 0.85633,0.333019 0.76118,0.951484 l -0.71361,5.233163 c -0.0476,0.428168 -0.23787,0.57089 -0.71361,0.57089 h -11.27509 l -0.80876,5.899203 h 9.46727 c 0.57089,0 0.85633,0.333019 0.76118,0.951485 l -0.71361,5.233163 c -0.0952,0.475742 -0.23787,0.570891 -0.71361,0.570891 h -9.75271 l -1.56996,11.132365 c -0.0951,0.570891 -0.19029,0.856336 -0.71361,0.856336 h -6.23222 c -0.57089,0 -0.85634,-0.380594 -0.76119,-0.951484 z"
       fill="#202939"
       id="path9"
       style="fill:#202939;fill-opacity:1;stroke-width:1.58581" />
  </g>
</svg>
