<?xml version="1.0" encoding="UTF-8" standalone="no"?>
<svg
   width="398.39001"
   height="75.82"
   viewBox="0 0 398.39001 75.819998"
   fill="none"
   version="1.1"
   id="svg9"
   sodipodi:docname="logoLongFirmwareDarkMode.svg"
   inkscape:export-filename="Firmware Logo Long Light.png"
   inkscape:export-xdpi="96"
   inkscape:export-ydpi="96"
   inkscape:version="1.3 (0e150ed, 2023-07-21)"
   xmlns:inkscape="http://www.inkscape.org/namespaces/inkscape"
   xmlns:sodipodi="http://sodipodi.sourceforge.net/DTD/sodipodi-0.dtd"
   xmlns="http://www.w3.org/2000/svg"
   xmlns:svg="http://www.w3.org/2000/svg">
  <defs
     id="defs9" />
  <sodipodi:namedview
     id="namedview9"
     pagecolor="#ffffff"
     bordercolor="#000000"
     borderopacity="0.25"
     inkscape:showpageshadow="2"
     inkscape:pageopacity="0.0"
     inkscape:pagecheckerboard="0"
     inkscape:deskcolor="#d1d1d1"
     inkscape:zoom="0.99867351"
     inkscape:cx="236.81413"
     inkscape:cy="73.096962"
     inkscape:window-width="1392"
     inkscape:window-height="1051"
     inkscape:window-x="330"
     inkscape:window-y="38"
     inkscape:window-maximized="0"
     inkscape:current-layer="svg9">
    <inkscape:page
       x="0"
       y="0"
       width="398.39001"
       height="75.82"
       id="page3"
       margin="0 16.922571 0 0"
       bleed="0" />
  </sodipodi:namedview>
  <path
     fill-rule="evenodd"
     clip-rule="evenodd"
     d="m 67.331536,76.121683 h 17.149552 l -3.564419,-6.802474 -6.07935,-1.370296 -5.977541,-11.932564 7.80455,-13.138571 -3.096447,-6.112017 h 2.287368 l 4.133089,-2.672244 v -2.444521 h 1.727261 V 22.493497 L 73.748505,19.99379 71.694884,17.162172 H 61.459768 L 53.723567,25.800222 46.013214,10.408362 7.0344369e-4,0.00294618 30.615344,34.448104 H 27.105477 L 14.553719,43.366049 8.2079368,55.678731 5.5305556,56.437222 V 46.067471 L 8.198184,44.313251 2.3332992,35.359467 v 25.305675 l 8.0776258,-2.281659 6.621981,-12.856296 6.989286,-4.966114 -10.205699,20.562685 v 8.101096 l 2.800932,6.896829 H 27.45039 V 72.642264 L 26.140831,69.885501 23.083394,68.01409 v -1.601349 l 6.296607,-10.42446 v 6.802002 l 5.510679,6.369553 2.388225,4.260426 v 2.701421 h 12.538819 v -3.459751 l -1.377591,-3.108341 -3.278497,-1.773883 -3.88618,-5.764092 2.983697,-5.542079 9.058764,1.421518 -2.128946,11.717211 -0.02601,6.509417 H 63.76997 v -3.319722 l -0.588017,-2.330502 -1.793707,-1.754223 1.367283,-2.7352 4.576005,7.109494 z m 4.615491,-42.555447 h 2.965935 l 1.878072,-1.213935 V 31.648996 H 75.24963 V 28.44963 h 3.271995 v -3.606284 l -6.738887,-2.112295 -1.715685,-2.369514 h -4.809594 z m -9.834065,-12.344397 -2.244552,2.507636 11.179623,22.343546 1.970683,-3.318935 z m -6.849577,7.652311 2.313376,-2.584389 11.532465,23.048596 -1.949751,3.283572 z M 29.035087,37.647469 17.010546,61.872418 v 6.727469 l 1.754537,4.319107 h 5.280104 L 23.66491,72.121491 19.889262,69.81065 v -4.289766 l 8.886704,-14.717876 31.157146,4.891898 10.592398,16.452748 v 0.77134 h 8.669132 L 78.775355,72.118315 72.660323,70.738346 72.319216,70.061367 52.56117,30.613781 34.474881,37.647469 Z M 51.121416,27.739188 43.836218,13.194419 36.036267,11.43078 47.637238,29.094578 Z M 44.591855,30.279017 31.546212,10.415562 22.249418,8.3134639 41.011578,31.671673 Z M 37.888014,32.886718 17.240012,7.1808324 9.0011106,5.3179375 34.582399,34.102873 34.443958,34.226249 Z m -5.31404,28.712306 V 54.63971 l 8.338332,1.30845 -3.363655,6.252996 5.403479,8.019743 3.008752,1.627353 0.474315,1.070742 H 40.47288 v -0.335246 l -2.956738,-5.272646 z m 28.170119,1.258021 -2.71839,-4.223163 -1.551396,-0.243421 -2.114198,11.654731 v 2.873802 h 6.144368 l -0.198225,-0.790845 -2.820358,-2.753436 z m 0.71964,-53.1675132 h -0.0031 V 15.030562 H 71.695711 V 9.6895318 h -0.0065 l -2.55058,2.5582242 -2.553942,-2.5582242 h -0.013 l -2.553942,2.5582242 z"
     fill="#e74860"
     id="path1"
     style="stroke-width:1.58581" />
  <g
     id="g1"
     transform="matrix(1.6687605,0,0,1.6687605,-75.382801,-39.367818)">
    <path
       d="m 262.34395,54.015536 c 0,-0.999059 0.0951,-2.093266 0.23787,-3.235046 1.14177,-8.087617 4.85257,-11.703257 12.17899,-11.703257 6.32738,0 9.08668,2.759305 9.08668,9.229397 0,1.522375 -0.14272,3.139898 -0.33302,4.614699 -0.0951,0.713614 -0.23787,0.808762 -0.99906,0.808762 h -13.13049 v 0.237871 c 0,2.473859 1.47481,2.854453 4.66228,2.854453 2.47386,0 4.13896,-0.285445 6.18465,-0.666039 0.76119,-0.142723 1.14178,0.333019 1.04663,0.951484 l -0.61846,4.567125 c -0.0951,0.57089 -0.23787,0.713612 -0.71362,0.808761 -1.95054,0.380594 -4.18653,0.570891 -6.51766,0.570891 -7.70703,0 -11.08479,-2.759305 -11.08479,-9.039101 z m 7.70702,-4.804995 h 7.08855 c 0.0476,-0.475743 0.0951,-0.951485 0.0951,-1.332078 0,-2.045691 -0.80876,-2.664156 -2.66416,-2.664156 -2.42628,0 -3.80593,0.999058 -4.51954,3.996234 z"
       fill="#202939"
       id="path2"
       style="fill:#ffffff;fill-opacity:1;stroke-width:1.58581" />
    <path
       d="m 247.41833,62.483746 c -0.52332,0 -0.85634,-0.33302 -0.76119,-0.90391 l 2.9496,-21.027802 c 0.0951,-0.666039 0.33303,-0.903911 0.85634,-0.903911 h 4.85257 c 0.52332,0 0.85633,0.237872 0.76119,0.951485 l -0.14273,1.189355 c 2.33114,-2.283562 4.90015,-2.71173 6.37494,-2.71173 h 0.23787 c 0.90392,0 1.18936,0.285445 1.09422,0.951485 l -0.61847,4.51955 c -0.0951,0.523316 -0.14272,0.761187 -0.71362,0.761187 h -0.0476 c -2.33114,0 -4.47197,0.618465 -6.47009,1.998117 l -1.99812,14.319838 c -0.0952,0.523316 -0.33302,0.856336 -0.85633,0.856336 z"
       fill="#202939"
       id="path3"
       style="fill:#ffffff;fill-opacity:1;stroke-width:1.58581" />
    <path
       d="m 222.94299,54.158259 c 0,-0.951485 0.0476,-1.950543 0.23787,-3.04475 1.14177,-8.420636 5.85162,-12.036276 13.13048,-12.036276 3.33019,0 7.04097,0.761188 8.46821,1.427227 0.61846,0.285445 0.9039,0.523316 0.85633,0.90391 L 242.829,61.579836 c -0.0952,0.618465 -0.28544,0.90391 -0.80876,0.90391 h -4.805 c -0.57088,0 -0.85633,-0.33302 -0.76118,-0.951484 l 0.0951,-0.570891 c -1.6651,1.427226 -3.56807,2.093266 -5.8992,2.093266 -4.90015,0 -7.70702,-3.04475 -7.70702,-8.896378 z m 7.23127,-0.523316 c 0,2.37871 0.90391,3.235046 2.85445,3.235046 0.99906,0 2.04569,-0.237871 3.42535,-0.856336 l 1.42722,-10.751772 c -0.42817,0 -0.85633,-0.04757 -1.33207,-0.04757 -4.09139,0 -5.61376,1.855395 -6.23223,6.232222 -0.0951,0.856337 -0.14272,1.569949 -0.14272,2.188415 z"
       fill="#202939"
       id="path4"
       style="fill:#ffffff;fill-opacity:1;stroke-width:1.58581" />
    <path
       d="m 195.43398,62.483746 c -0.47574,0 -0.71361,-0.285445 -0.80876,-0.808761 l -3.04474,-21.360822 c -0.0476,-0.428168 0.14272,-0.66604 0.52331,-0.66604 h 5.7089 c 0.57089,0 0.80876,0.285446 0.85634,0.856337 l 0.42817,4.234105 c 0.23787,2.902027 0.47574,5.75648 0.66604,9.0391 1.18935,-3.425344 2.28356,-6.422518 3.47291,-9.419694 l 1.66511,-4.234105 c 0.14272,-0.380593 0.33301,-0.475742 0.80875,-0.475742 h 4.13896 c 0.52332,0 0.80876,0.285445 0.85634,0.856336 l 0.47574,4.234105 c 0.28544,2.902027 0.57089,5.804054 0.80877,9.086675 1.14177,-3.472919 2.23598,-6.470093 3.33019,-9.467269 l 1.61751,-4.234105 c 0.14274,-0.333019 0.33303,-0.475743 0.80877,-0.475743 h 5.75648 c 0.57089,0 0.90391,0.475743 0.66604,1.046633 l -9.0391,21.360822 c -0.14272,0.333019 -0.33302,0.428168 -0.80877,0.428168 h -5.56618 c -0.42816,0 -0.76118,-0.285445 -0.80876,-0.808761 l -0.57089,-4.186531 c -0.28544,-2.331136 -0.57088,-4.709847 -0.76118,-7.707023 -1.09421,3.187472 -2.04569,5.661332 -3.04476,8.087616 l -1.76024,4.186531 c -0.14272,0.333019 -0.38059,0.428168 -0.80877,0.428168 z"
       fill="#202939"
       id="path5"
       style="fill:#ffffff;fill-opacity:1;stroke-width:1.58581" />
    <path
       d="m 167.14953,62.483746 c -0.52332,0 -0.85633,-0.33302 -0.76119,-0.951484 l 1.71267,-12.274147 c 0.42818,-3.187472 0.0951,-3.901086 -1.76024,-3.901086 -1.42723,0 -2.85445,0.475743 -4.23411,1.189356 l -2.14084,15.1286 c -0.0952,0.523316 -0.33302,0.808761 -0.80876,0.808761 h -5.56539 c -0.52331,0 -0.85634,-0.380594 -0.76118,-0.90391 l 2.99717,-21.360822 c 0.0476,-0.380593 0.23787,-0.570891 0.71361,-0.570891 h 4.89936 c 0.61846,0 0.80875,0.333021 0.71361,0.951485 l -0.0951,0.666039 c 2.14084,-1.522374 4.47198,-2.188414 7.04098,-2.188414 2.99718,0 4.85258,0.951485 5.80406,2.664156 2.33113,-1.80782 4.90014,-2.664156 7.70702,-2.664156 5.37588,0 7.13613,2.997176 6.37653,8.373062 l -1.95213,14.129541 c -0.0951,0.666039 -0.28544,0.90391 -0.80876,0.90391 h -5.5646 c -0.57247,0 -0.85792,-0.33302 -0.76277,-0.951484 l 1.71267,-12.274147 c 0.42817,-3.187472 0.0952,-3.901086 -1.76024,-3.901086 -1.42724,0 -2.90203,0.475743 -4.28169,1.189356 0,0.285445 -0.0476,0.618464 -0.0951,0.90391 l -1.95053,14.177115 c -0.0952,0.618465 -0.28546,0.856336 -0.7612,0.856336 z"
       fill="#202939"
       id="path6"
       style="fill:#ffffff;fill-opacity:1;stroke-width:1.58581" />
    <path
       d="m 137.39978,62.483746 c -0.52331,0 -0.85633,-0.33302 -0.76118,-0.90391 l 2.9496,-21.027802 c 0.0951,-0.666039 0.33302,-0.903911 0.85634,-0.903911 h 4.85256 c 0.52333,0 0.85635,0.237872 0.7612,0.951485 l -0.14272,1.189355 c 2.33113,-2.283562 4.90013,-2.71173 6.37509,-2.71173 h 0.23772 c 0.90391,0 1.18936,0.285445 1.09421,0.951485 l -0.61847,4.51955 c -0.0951,0.523316 -0.14257,0.761187 -0.71346,0.761187 h -0.0477 c -2.33113,0 -4.47198,0.618465 -6.47009,1.998117 l -1.99811,14.319838 c -0.0952,0.523316 -0.33302,0.856336 -0.85634,0.856336 z"
       fill="#202939"
       id="path7"
       style="fill:#ffffff;fill-opacity:1;stroke-width:1.58581" />
    <path
       d="m 126.36654,62.483746 c -0.47574,0 -0.85634,-0.33302 -0.7612,-0.90391 l 2.94961,-21.075376 c 0.0952,-0.570891 0.28545,-0.856337 0.90391,-0.856337 h 5.47103 c 0.57089,0 0.85634,0.333021 0.76119,0.951485 l -2.9496,21.075377 c -0.0951,0.523316 -0.23787,0.808761 -0.76119,0.808761 z m 2.85445,-26.784282 0.80876,-5.518609 c 0.0476,-0.428168 0.23787,-0.618464 0.71361,-0.618464 h 5.51861 c 0.61847,0 0.95149,0.285445 0.85634,0.999058 l -0.80876,5.518609 c -0.0476,0.475741 -0.23788,0.618465 -0.71362,0.618465 h -5.51861 c -0.66603,0 -0.95148,-0.428169 -0.85633,-0.999059 z"
       fill="#202939"
       id="path8"
       style="fill:#ffffff;fill-opacity:1;stroke-width:1.58581" />
    <path
       d="m 107.29625,31.655656 c 0.0476,-0.428168 0.1903,-0.57089 0.66605,-0.57089 h 18.0782 c 0.57089,0 0.85633,0.333019 0.76118,0.951484 l -0.71361,5.233163 c -0.0476,0.428168 -0.23787,0.57089 -0.71362,0.57089 h -11.27508 l -0.80876,5.899203 h 9.46726 c 0.5709,0 0.85634,0.333019 0.76119,0.951485 l -0.71362,5.233163 c -0.0952,0.475742 -0.23787,0.570891 -0.71361,0.570891 h -9.75271 l -1.56995,11.132365 c -0.0951,0.570891 -0.19029,0.856336 -0.71361,0.856336 h -6.23223 c -0.57088,0 -0.85633,-0.380594 -0.76118,-0.951484 z"
       fill="#202939"
       id="path9"
       style="fill:#ffffff;fill-opacity:1;stroke-width:1.58581" />
  </g>
</svg>
